<svg width="63" height="63" viewBox="0 0 63 63" fill="none" xmlns="http://www.w3.org/2000/svg">
<path d="M31.4844 0C14.0956 0 0 14.0956 0 31.4844C0 48.8731 14.0956 62.9688 31.4844 62.9688C48.8731 62.9688 62.9688 48.8731 62.9688 31.4844C62.9688 14.0956 48.8731 0 31.4844 0ZM41.9313 45.3984C41.4362 45.891 40.917 46.4077 40.4955 46.8305C40.1159 47.2113 39.848 47.6811 39.7122 48.1901C39.5205 48.9087 39.3656 49.6349 39.1066 50.3318L36.8989 56.2796C35.1521 56.6604 33.3442 56.875 31.4844 56.875V53.399C31.6989 51.7969 30.5145 48.7957 28.6114 46.8927C27.8497 46.131 27.4219 45.0976 27.4219 44.0197V39.956C27.4219 38.4782 26.6259 37.1198 25.3322 36.4051C23.5079 35.3958 20.913 33.9854 19.1356 33.0903C17.6782 32.3565 16.33 31.4222 15.1176 30.3291L15.016 30.2377C14.149 29.4551 13.3792 28.5711 12.7232 27.6047C11.5324 25.8565 9.59258 22.9811 8.33193 21.1123C10.9307 15.3359 15.614 10.6971 21.4335 8.17705L24.4816 9.70176C25.8324 10.3771 27.4219 9.3958 27.4219 7.88506V6.45049C28.4362 6.28672 29.4684 6.18262 30.5183 6.14326L34.111 9.73604C34.9045 10.5295 34.9045 11.8155 34.111 12.609L33.5156 13.2031L32.2029 14.5158C31.8068 14.9119 31.8068 15.5556 32.2029 15.9517L32.7983 16.5471C33.1944 16.9432 33.1944 17.5868 32.7983 17.9829L31.7827 18.9985C31.592 19.1889 31.3336 19.2957 31.0642 19.2956H29.9229C29.6588 19.2956 29.4049 19.3984 29.2145 19.5838L27.9551 20.8089C27.8007 20.9592 27.6981 21.1547 27.662 21.3671C27.626 21.5796 27.6584 21.798 27.7545 21.9908L29.7337 25.9505C30.0714 26.6259 29.5801 27.4206 28.826 27.4206H28.11C27.8649 27.4206 27.6288 27.3317 27.4447 27.1718L26.2666 26.1485C26 25.9173 25.6778 25.7593 25.3317 25.6903C24.9855 25.6213 24.6274 25.6436 24.2925 25.755L20.3354 27.074C20.0332 27.1748 19.7705 27.368 19.5843 27.6264C19.3982 27.8848 19.298 28.1952 19.2981 28.5137C19.2981 29.0888 19.6231 29.6131 20.1373 29.8708L21.5439 30.5741C22.7386 31.1721 24.0563 31.4831 25.3919 31.4831C26.7274 31.4831 28.2598 34.9477 29.4544 35.5456H37.9285C39.0063 35.5456 40.0385 35.9734 40.8015 36.7352L42.5395 38.4731C43.2655 39.1995 43.6733 40.1845 43.6731 41.2115C43.6729 41.9897 43.5189 42.7602 43.22 43.4788C42.9211 44.1973 42.4831 44.8497 41.9313 45.3984ZM52.9395 33.8013C52.2044 33.6172 51.5633 33.1665 51.1431 32.5355L48.8604 29.1116C48.5265 28.6114 48.3482 28.0234 48.3482 27.4219C48.3482 26.8204 48.5265 26.2324 48.8604 25.7321L51.3475 22.0022C51.642 21.5617 52.0457 21.2037 52.5205 20.9676L54.1684 20.1437C55.8848 23.5612 56.875 27.4054 56.875 31.4844C56.875 32.5851 56.7811 33.6629 56.6439 34.7268L52.9395 33.8013Z" fill="white"/>
</svg>
