<svg width="65" height="65" viewBox="0 0 65 65" fill="none" xmlns="http://www.w3.org/2000/svg">
<g clip-path="url(#clip0_1_2652)">
<path d="M52.7998 39.1396L55.834 31.1924C56.3418 29.8594 55.3643 28.4375 53.9297 28.4375H46.5029C47.8994 26.0381 48.7627 23.2832 48.7627 20.3125V20.2744C53.7393 19.2842 56.8877 17.8496 56.8877 16.25C56.8877 14.5615 53.4219 13.0635 47.9883 12.0605C46.8203 7.89647 44.5605 3.70701 42.834 1.54881C41.6279 0.0380664 39.5459 -0.43166 37.8193 0.431621L34.3154 2.18357C33.1729 2.75486 31.8271 2.75486 30.6846 2.18357L27.1807 0.431621C25.4541 -0.43166 23.3721 0.0380664 22.166 1.54881C20.4521 3.70701 18.1797 7.89647 17.0117 12.0605C11.5908 13.0635 8.125 14.5615 8.125 16.25C8.125 17.8496 11.2734 19.2842 16.25 20.2744V20.3125C16.25 23.2832 17.1133 26.0381 18.5098 28.4375H11.21C9.75 28.4375 8.77246 29.9228 9.34375 31.2685L12.6191 38.9111C7.52832 41.8691 4.0625 47.3154 4.0625 53.625V59.3125C4.0625 62.4482 6.61426 65 9.75 65H55.25C58.3857 65 60.9375 62.4482 60.9375 59.3125V53.625C60.9375 47.4805 57.6621 42.1484 52.7998 39.1396ZM26.4062 60.9375L21.125 36.5625L27.4219 40.625L30.4688 45.7031L26.4062 60.9375ZM38.5938 60.9375L34.5312 45.7031L37.5781 40.625L43.875 36.5625L38.5938 60.9375ZM43.8877 23.042C43.3926 24.5527 42.999 26.165 41.793 27.2822C40.5107 28.4629 35.6992 30.126 33.668 24.1084C33.3125 23.042 31.7129 23.042 31.3447 24.1084C29.1865 30.4814 24.2354 28.2217 23.2197 27.2822C22.0137 26.165 21.6074 24.5527 21.125 23.042C21.0234 22.7246 20.3252 22.3183 20.3252 22.3056V20.9346C23.918 21.3916 28.0693 21.6709 32.5127 21.6709C36.9561 21.6709 41.1074 21.4043 44.7002 20.9346V22.3056C44.6875 22.3183 43.9893 22.7119 43.8877 23.042Z" fill="white"/>
</g>
<defs>
<clipPath id="clip0_1_2652">
<rect width="65" height="65" fill="white"/>
</clipPath>
</defs>
</svg>
